<?xml version="1.0" standalone="no"?>
<!DOCTYPE svg PUBLIC "-//W3C//DTD SVG 20010904//EN"
 "http://www.w3.org/TR/2001/REC-SVG-20010904/DTD/svg10.dtd">
<svg version="1.0" xmlns="http://www.w3.org/2000/svg"
 width="972.000000pt" height="1280.000000pt" viewBox="0 0 972.000000 1280.000000"
 preserveAspectRatio="xMidYMid meet">
<metadata>
Created by potrace 1.15, written by Peter Selinger 2001-2017
</metadata>
<g transform="translate(0.000000,1280.000000) scale(0.100000,-0.100000)"
fill="#000000" stroke="none">
<path d="M3858 12637 c-36 -89 -264 -641 -506 -1227 -242 -586 -907 -2194
-1477 -3575 -1196 -2895 -1358 -3288 -1656 -4009 l-219 -529 0 -123 0 -124
2450 0 2450 0 0 -1525 0 -1525 108 0 c112 0 81 -4 1737 245 1123 169 1296 195
1301 195 2 0 4 587 4 1305 l0 1305 595 0 c327 0 595 4 595 8 0 5 108 601 240
1326 219 1200 240 1327 240 1426 l0 110 -835 0 -835 0 0 3440 0 3440 -2062 0
-2063 0 -67 -163z m1242 -5292 l0 -1425 -590 0 c-324 0 -590 3 -590 7 0 9
1173 2843 1177 2843 2 0 3 -641 3 -1425z"/>
</g>
</svg>
